<?xml version="1.0" encoding="UTF-8" standalone="no"?>
<svg viewBox="0 0 520 239" version="1.1" xmlns="http://www.w3.org/2000/svg" xmlns:xlink="http://www.w3.org/1999/xlink" xmlns:sketch="http://www.bohemiancoding.com/sketch/ns">
    <!-- Generator: Sketch 3.4 (15575) - http://www.bohemiancoding.com/sketch -->
    <title>Path</title>
    <desc>Created with Sketch.</desc>
    <defs>
        <linearGradient x1="100%" y1="100%" x2="0%" y2="0%" id="linearGradient-1">
            <stop stop-color="#59BC73" offset="0%"></stop>
            <stop stop-color="#428ECC" offset="100%"></stop>
        </linearGradient>
    </defs>
    <g id="Web" stroke="none" stroke-width="1" fill="none" fill-rule="evenodd" sketch:type="MSPage">
        <g id="Artboard-6" sketch:type="MSArtboardGroup" fill="url(#linearGradient-1)">
            <path d="M512,182 L512,155.064115 C512,151.08821 509.643867,148.820673 507.62102,148.140265 C505.4343,147.403279 498.138593,145.928571 485.006466,145.928571 C471.874338,145.928571 464.578631,147.402544 462.390064,148.140265 C460.264881,148.855208 458.012931,151.08821 458.012931,155.064115 L458.012931,186.464286 L458.012931,217.864456 C458.012931,221.840361 460.264881,224.073364 462.390064,224.788306 C464.578631,225.526027 471.874338,227 485.006466,227 C485.686599,227 486.351077,226.996044 487,226.98844 L487,186.99503 C487,184.243241 489.238003,182 491.99872,182 L512,182 Z M32.8378378,214.028571 L81.1831897,214.028571 C85.6247376,214.028571 89.8211207,212.884841 89.8211207,209.372161 L82.9638737,200.403333 C82.4877078,199.591953 78.9064597,198.895238 74.9930958,198.895238 L32.8378378,198.895238 L32.8378378,214.028571 Z M32.8378378,227 L81.1831897,227 C86.2266462,227 90.9008621,225.769065 90.9008621,222.67619 L90.9008621,210.785714 C90.9008621,213.878589 86.2266462,215.109524 81.1831897,215.109524 L32.8378378,215.109524 L32.8378378,227 Z M257.987406,222.507576 L258.991641,222.507576 C260.92507,222.507576 262.492424,224.073292 262.492424,226.003588 L262.492424,235.496412 C262.492424,237.427206 260.917863,238.992424 258.991641,238.992424 L245.493207,238.992424 C243.559778,238.992424 241.992424,237.426708 241.992424,235.496412 L241.992424,226.003588 C241.992424,224.072794 243.566986,222.507576 245.493207,222.507576 L247.014328,222.507576 C247.016576,222.254269 247.217773,221.997727 247.46556,221.997727 L250.139159,221.997727 C250.386946,221.997727 250.588047,222.254269 250.590294,222.507576 L253,222.507576 L253,222.296595 C253,222.13348 253.097102,222 253.215842,222 L257.771564,222 C257.890303,222 257.987406,222.13348 257.987406,222.296595 L257.987406,222.507576 Z M241.492924,235.574964 C240.382939,235.348997 238.914172,235.139842 237.006181,234.912086 C237.006181,234.912086 235.742424,234.774283 235.742424,230.518384 C235.742424,226.262485 237.006181,226.087914 237.006181,226.087914 C238.979083,225.852409 240.450269,225.636793 241.535364,225.401913 C241.50708,225.593458 241.492424,225.789424 241.492424,225.988799 L241.492424,235.511201 C241.492424,235.532494 241.492591,235.553749 241.492924,235.574964 Z M262.99051,235.635838 C263.957299,235.38764 265.368875,235.163931 267.478668,234.912086 C267.478668,234.912086 268.736702,235.003568 268.742424,230.518384 C268.736702,225.996432 267.478668,226.087914 267.478668,226.087914 C265.428918,225.843236 263.978976,225.625116 262.947085,225.385294 C262.976943,225.582152 262.992424,225.783692 262.992424,225.988799 L262.992424,235.511201 C262.992424,235.552899 262.991783,235.594448 262.99051,235.635838 Z M87.544009,202.138095 L169.721983,202.138095 L169.721983,131.87619 L50.950431,131.87619 L50.950431,196.652381 L40.1530172,196.652381 L40.1530172,129.714286 C40.1530172,125.894893 43.9079529,122.147619 47.7112069,122.147619 L170.801724,122.147619 C175.68472,122.147619 179.439655,125.894893 179.439655,129.714286 L179.439655,208.62381 L92.5743101,208.62381 C91.2173066,206.677895 89.2147071,204.169017 87.544009,202.138095 Z M93.296455,209.704762 L102.778017,209.704762 L103.857759,210.785714 L115.734914,210.785714 L116.814655,209.704762 L196.715517,209.704762 C196.715517,209.704762 193.598495,212.947619 184.838362,212.947619 L94.1400862,212.947619 L94.1400862,211.506349 C94.1400862,211.175087 93.8199788,210.533137 93.296455,209.704762 Z M279.425191,187.004762 L223.060008,187.004762 C223.060008,187.004762 222.910424,200.775451 218.724225,204.782568 C214.538026,208.789686 206.883924,209.219909 205.716875,210.471466 C205.287633,211.262934 205.179961,212.12978 205.716875,212.604803 C208.656536,214.132272 244.879115,214.027028 251.242599,214.027028 C257.606084,214.027028 293.828663,214.132272 296.768324,212.604803 C297.304515,212.12978 297.197566,211.262934 296.768324,210.471466 C295.601275,209.219909 287.947173,208.789686 283.760974,204.782568 L279.425191,187.004762 Z M325.204741,185.92381 L325.204741,161.061905 L182.678879,161.061905 L182.678879,185.92381 L325.204741,185.92381 Z M182.678879,148.090476 L182.678879,159.980952 L325.204741,159.980952 L325.204741,148.090476 L182.678879,148.090476 Z M373.793103,10.8095238 L373.793103,95.1238095 L384.590517,95.1238095 L384.590517,8.64761905 C384.590517,3.89558101 380.701977,0 375.952586,0 L125.452586,0 C120.703195,0 116.814655,3.89558101 116.814655,8.64761905 L116.814655,118.904762 L127.612069,118.904762 L127.612069,10.8095238 L373.793103,10.8095238 Z M479.607759,104.852381 L479.607759,142.685714 L486.086207,142.685714 L486.086207,107.014286 C486.086207,102.304056 482.140523,98.3666667 477.448276,98.3666667 L336.002155,98.3666667 C331.308465,98.3666667 327.364224,102.304056 327.364224,107.014286 L327.364224,206.461905 L454.773707,206.461905 L454.773707,198.895238 L333.85348,198.895238 L333.857396,104.89513 L479.607759,104.852381 Z M400.786638,209.704762 C398.627159,209.704762 398.627159,209.704762 398.627155,207.542857 L310.088362,207.542857 C310.107416,207.542857 309.264735,214.028571 318.726293,214.028571 L454.773707,214.028571 L454.773707,207.542857 L415.903017,207.542857 C415.903021,209.704762 415.903021,209.704762 413.743534,209.704762 L400.786638,209.704762 Z M109.796336,126.471429 C110.094345,126.471429 110.336207,126.713562 110.336207,127.011905 C110.336207,127.310248 110.094345,127.552381 109.796336,127.552381 C109.498328,127.552381 109.256466,127.310248 109.256466,127.011905 C109.256466,126.713562 109.498328,126.471429 109.796336,126.471429 Z M251.242457,4.32380952 C251.540466,4.32380952 251.782328,4.56594286 251.782328,4.86428571 C251.782328,5.16262857 251.540466,5.4047619 251.242457,5.4047619 C250.944448,5.4047619 250.702586,5.16262857 250.702586,4.86428571 C250.702586,4.56594286 250.944448,4.32380952 251.242457,4.32380952 Z M406.725216,101.609524 C407.023224,101.609524 407.265086,101.851657 407.265086,102.15 C407.265086,102.448343 407.023224,102.690476 406.725216,102.690476 C406.427207,102.690476 406.185345,102.448343 406.185345,102.15 C406.185345,101.851657 406.427207,101.609524 406.725216,101.609524 Z M76.8642241,217.271429 C77.4602414,217.271429 77.9439655,217.755695 77.9439655,218.352381 C77.9439655,218.949067 77.4602414,219.433333 76.8642241,219.433333 C76.2682069,219.433333 75.7844828,218.949067 75.7844828,218.352381 C75.7844828,217.755695 76.2682069,217.271429 76.8642241,217.271429 Z M245.98271,237.44697 C244.883505,237.44697 243.992424,236.547358 243.992424,235.441762 L243.992424,226.058238 C243.992424,224.950793 244.879536,224.05303 245.98271,224.05303 L258.502139,224.05303 C259.601343,224.05303 260.492424,224.952642 260.492424,226.058238 L260.492424,235.441762 C260.492424,236.549207 259.605313,237.44697 258.502139,237.44697 L245.98271,237.44697 Z M4.39438602,179 C1.96743364,179 0,180.962195 0,183.399782 L0,234.600218 C0,237.030151 1.96838379,239 4.39438602,239 L25.605614,239 C28.0325664,239 30,237.037805 30,234.600218 L30,183.399782 C30,180.969849 28.0316162,179 25.605614,179 L4.39438602,179 Z M2,186 L2,231 L28,231 L28,186 L2,186 Z M12.8923416,183 C12.6756573,183 12.5,183.174187 12.5,183.406738 L12.5,183.593262 C12.5,183.817897 12.6779526,184 12.8923416,184 L17.1076584,184 C17.3243427,184 17.5,183.825813 17.5,183.593262 L17.5,183.406738 C17.5,183.182103 17.3220474,183 17.1076584,183 L12.8923416,183 Z M14.5,182 C14.7761424,182 15,181.776142 15,181.5 C15,181.223858 14.7761424,181 14.5,181 C14.2238576,181 14,181.223858 14,181.5 C14,181.776142 14.2238576,182 14.5,182 Z M14.5714286,237.285714 C15.9915894,237.285714 17.1428571,236.134446 17.1428571,234.714286 C17.1428571,233.294125 15.9915894,232.142857 14.5714286,232.142857 C13.1512678,232.142857 12,233.294125 12,234.714286 C12,236.134446 13.1512678,237.285714 14.5714286,237.285714 Z M13.2857143,234.28482 C13.2857143,233.811927 13.6651374,233.428571 14.1419628,233.428571 L15.0008944,233.428571 C15.4737874,233.428571 15.8571429,233.807995 15.8571429,234.28482 L15.8571429,235.143752 C15.8571429,235.616644 15.4777197,236 15.0008944,236 L14.1419628,236 C13.6690698,236 13.2857143,235.620577 13.2857143,235.143752 L13.2857143,234.28482 Z M13.7142857,234.28973 C13.7142857,234.050819 13.8977443,233.857143 14.1468724,233.857143 L14.9959848,233.857143 C15.2348958,233.857143 15.4285714,234.040601 15.4285714,234.28973 L15.4285714,235.138842 C15.4285714,235.377753 15.2451128,235.571429 14.9959848,235.571429 L14.1468724,235.571429 C13.9079614,235.571429 13.7142857,235.38797 13.7142857,235.138842 L13.7142857,234.28973 Z M490,188.418908 C490,186.530697 491.528949,185 493.426765,185 L516.573235,185 C518.465785,185 520,186.52913 520,188.418908 L520,235.581092 C520,237.469303 518.471051,239 516.573235,239 L493.426765,239 C491.534215,239 490,237.47087 490,235.581092 L490,188.418908 Z M504.571429,237.285714 C505.991589,237.285714 507.142857,236.134446 507.142857,234.714286 C507.142857,233.294125 505.991589,232.142857 504.571429,232.142857 C503.151268,232.142857 502,233.294125 502,234.714286 C502,236.134446 503.151268,237.285714 504.571429,237.285714 Z M503.285714,234.28482 C503.285714,233.811927 503.665137,233.428571 504.141963,233.428571 L505.000894,233.428571 C505.473787,233.428571 505.857143,233.807995 505.857143,234.28482 L505.857143,235.143752 C505.857143,235.616644 505.47772,236 505.000894,236 L504.141963,236 C503.66907,236 503.285714,235.620577 503.285714,235.143752 L503.285714,234.28482 Z M503.714286,234.28973 C503.714286,234.050819 503.897744,233.857143 504.146872,233.857143 L504.995985,233.857143 C505.234896,233.857143 505.428571,234.040601 505.428571,234.28973 L505.428571,235.138842 C505.428571,235.377753 505.245113,235.571429 504.995985,235.571429 L504.146872,235.571429 C503.907961,235.571429 503.714286,235.38797 503.714286,235.138842 L503.714286,234.28973 Z M502.857143,189.714286 C502.857143,189.477592 503.042514,189.285714 503.294324,189.285714 L507.991391,189.285714 C508.232839,189.285714 508.428571,189.484515 508.428571,189.714286 C508.428571,189.950979 508.2432,190.142857 507.991391,190.142857 L503.294324,190.142857 C503.052875,190.142857 502.857143,189.944057 502.857143,189.714286 Z M501.571429,190.142857 C501.808122,190.142857 502,189.950979 502,189.714286 C502,189.477592 501.808122,189.285714 501.571429,189.285714 C501.334735,189.285714 501.142857,189.477592 501.142857,189.714286 C501.142857,189.950979 501.334735,190.142857 501.571429,190.142857 Z M491.714286,193.571429 L518.285714,193.571429 L518.285714,230.428571 L491.714286,230.428571 L491.714286,193.571429 Z" id="Path" sketch:type="MSShapeGroup"></path>
        </g>
    </g>
</svg>