<?xml version="1.0" encoding="UTF-8"?>
<svg width="35px" height="52px" viewBox="0 0 35 52" version="1.1" xmlns="http://www.w3.org/2000/svg" xmlns:xlink="http://www.w3.org/1999/xlink">
    <!-- Generator: Sketch 49.1 (51147) - http://www.bohemiancoding.com/sketch -->
    <title>Profile (man)</title>
    <desc>Created with Sketch.</desc>
    <defs></defs>
    <g id="Profile-Settings" stroke="none" stroke-width="1" fill="none" fill-rule="evenodd" stroke-linecap="round" stroke-linejoin="round">
        <g id="Upgrade" transform="translate(-471.000000, -92.000000)" stroke="#009CDE" stroke-width="2">
            <g id="Group-2" transform="translate(472.000000, 93.000000)">
                <g id="Profile-(man)">
                    <path d="M6.84125334,2.92503948 C7.51746188,2.49762014 9.07205088,1.69328891 9.07205088,1.69328891 C14.2023201,-1.18437335 22.4825785,-0.374360037 26.5812687,3.97180649 C26.777162,4.18014974 26.9611259,4.37902284 27.1362997,4.57158252 L27.1375554,4.57158252 C27.1375554,4.57158252 29.1385551,6.97194933 32.5622925,5.86709875 C32.5622925,5.86709875 28.7329555,9.23657735 27.5067389,9.20753557 M6.84125334,2.92503948 C1.06491297,6.65375236 -2.01036042,14.6288795 1.46423389,21.616586 C3.23606351,25.1786243 3.43760756,27.7696567 3.11425807,29.5967639 M1.00714956,34.9423467 C1.32422042,34.9423467 2.22897112,35.0162139 2.22897112,35.0162139 C2.97863965,35.1885705 6.32012698,35.748572 9.00424167,40.916116 C13.0263326,48.6582775 17.4584181,49.8767699 17.4584181,49.8767699 C13.1173727,38.1596716 16.6032686,31.5570845 18.4316059,29.7192445 C20.2593153,27.8807731 26.3125433,31.1700711 27.0565611,29.199649 C28.3147987,25.8718391 29.1982021,22.1355501 29.1982021,22.1355501 C29.1982021,22.1355501 29.5410153,21.61848 30.312659,21.7037113 C30.6893769,21.7466427 31.2418964,21.3059651 30.9982855,21.0149159 C30.0552352,19.8949131 28.8842705,17.0204075 28.8842705,17.0204075 C29.0619558,14.6124646 28.6902608,11.8074068 27.5073668,9.20690422" id="Imported-Layers"></path>
                </g>
            </g>
        </g>
    </g>
</svg>